<svg width="230" height="49" xmlns="http://www.w3.org/2000/svg"><g fill="none" fill-rule="evenodd"><path fill="#A2232B" d="M66.14 46.787h13.64V33.183H66.14zm19.565-.001h14.361V33.183h-14.36zm18.848 0h15.079V33.183h-15.079zm18.671 0h15.437V33.183h-15.437zm18.309 0h15.797V33.183h-15.797zm17.95 0h16.156V33.183h-16.156zm35.792 0h16.514V33.183h-16.514zm17.701 0h16.874V33.183h-16.874zm-27.778-11.291c-2.46 0-4.697-.726-6.645-2.159l-.208-.153h-.911v13.603h16.515V33.183h-1.51c-1.666 1.517-4.104 2.312-7.24 2.312M10.753 4.635c-4.196 0-5.957 3.29-5.957 9.72 0 7.774 2.286 10.316 6.107 10.316 3.785 0 5.808-2.617 5.808-9.756 0-6.691-1.461-10.28-5.958-10.28zm12.515 27.25c-2.698 1.122-5.208-.261-7.044-1.458-1.462-.971-3.073-1.906-5.358-2.504C3.635 27.923 0 22.204 0 14.578 0 6.13 4.346 1.308 10.79 1.308c7.082 0 10.867 5.308 10.867 13.345 0 5.757-1.911 9.756-5.32 11.887.936.374 2.097 1.084 2.847 1.532 1.386.86 2.773 1.384 5.245.935l-1.161 2.878zm15.85-3.738c-.824-.598-1.311-1.27-1.648-2.355-1.387 1.57-3.223 2.318-5.396 2.318-2.136 0-3.784-.748-4.72-1.87-.75-.896-1.05-2.13-1.05-4.485V8.934l4.046-.748v12.672c0 2.355.338 4.075 2.773 4.075 1.386 0 3.072-1.122 3.71-2.468V8.934l3.971-.748v14.242c0 2.841 1.162 3.776 1.162 3.776l-2.848 1.943zm14.688-16.858c-2.323 0-3.597 1.831-3.597 4.897h7.007c0-3.066-1.349-4.897-3.41-4.897zm-3.634 7.924v.3c0 2.616.974 5.382 4.684 5.382 1.76 0 3.297-.635 4.72-1.869l1.612 2.505c-1.986 1.682-4.272 2.504-6.82 2.504-5.358 0-8.73-3.85-8.73-9.906 0-3.326.712-5.532 2.36-7.4 1.537-1.758 3.41-2.543 5.808-2.543 1.874 0 3.597.486 5.209 1.944 1.648 1.495 2.472 3.813 2.472 8.224v.86H50.172zm26.903 8.337V14.69c0-2.355-.825-3.027-2.398-3.027-1.462 0-3.223.934-4.572 2.317v13.57h-4.159V5.045c0-1.682-.15-3.14-.374-4.112L69.73.037c.262 1.085.374 2.617.374 4.449v4.037c0 1.196-.075 2.13-.075 2.13 1.874-1.682 3.785-2.467 5.808-2.467 2.248 0 3.972 1.084 4.609 2.318.487.934.637 1.794.637 3.7V27.55h-4.01zm17.011-16.261c-2.323 0-3.597 1.831-3.597 4.897h7.007c0-3.066-1.349-4.897-3.41-4.897zm-3.634 7.924v.3c0 2.616.974 5.382 4.683 5.382 1.761 0 3.298-.635 4.721-1.869l1.611 2.505c-1.986 1.682-4.271 2.504-6.819 2.504-5.358 0-8.73-3.85-8.73-9.906 0-3.326.712-5.532 2.36-7.4 1.537-1.758 3.41-2.543 5.808-2.543 1.874 0 3.597.486 5.208 1.944 1.649 1.495 2.473 3.813 2.473 8.224v.86H90.452zm26.153 8.337V14.99c0-2.58-.6-3.29-2.173-3.29-1.2 0-2.923.897-4.16 2.13v13.72h-4.046V13.643c0-1.981-.187-3.14-.712-4.486l3.747-1.047c.45.86.675 1.683.675 2.692 2.023-1.72 3.784-2.617 5.807-2.617 2.923 0 4.946 1.757 4.946 5.234v14.13h-4.084zm17.761-15.887c-1.724 0-2.848.972-3.597 1.906v9.233c.824.86 2.023 1.645 3.522 1.645 2.585 0 3.71-1.87 3.71-6.617 0-3.401-.675-6.167-3.635-6.167m.712 16.297c-1.874 0-3.448-.747-4.61-2.168-.187.972-.224 1.234-.524 1.757h-3.784c.337-.86.487-1.682.487-4.224V5.495c0-2.168-.15-3.514-.487-4.56L130.43 0c.225 1.346.3 2.28.3 3.775v4.411c0 1.234-.112 1.794-.112 1.794l.15.038c1.311-1.27 2.697-1.832 4.496-1.832 4.533 0 7.381 3.7 7.381 9.607 0 6.056-3.147 10.167-7.568 10.167m19.447-16.671c-2.323 0-3.596 1.831-3.596 4.897h7.006c0-3.066-1.349-4.897-3.41-4.897zm-3.634 7.924v.3c0 2.616.974 5.382 4.684 5.382 1.76 0 3.297-.635 4.72-1.869l1.612 2.505c-1.986 1.682-4.272 2.504-6.82 2.504-5.358 0-8.73-3.85-8.73-9.906 0-3.326.712-5.532 2.36-7.4 1.537-1.758 3.41-2.543 5.808-2.543 1.874 0 3.597.486 5.209 1.944 1.648 1.495 2.472 3.813 2.472 8.224v.86H150.89zm24.617-6.99c-.412-.15-.712-.261-1.161-.261-1.724 0-3.185 1.27-3.56 2.803V27.55h-4.121V14.205c0-2.393-.263-3.925-.675-5.084l3.784-.972c.45.86.712 1.944.712 2.99 1.5-2.056 2.998-3.028 4.834-3.028.6 0 .974.075 1.461.3l-1.274 3.812zm30.383-.934c-2.323 0-3.597 1.831-3.597 4.897h7.007c0-3.066-1.35-4.897-3.41-4.897zm-3.634 7.924v.3c0 2.616.974 5.382 4.683 5.382 1.761 0 3.297-.635 4.721-1.869l1.612 2.505c-1.986 1.682-4.272 2.504-6.82 2.504-5.358 0-8.73-3.85-8.73-9.906 0-3.326.712-5.532 2.36-7.4 1.537-1.758 3.41-2.543 5.808-2.543 1.874 0 3.597.486 5.208 1.944 1.649 1.495 2.473 3.813 2.473 8.224v.86h-11.315zm24.617-6.99c-.412-.15-.712-.261-1.162-.261-1.723 0-3.185 1.27-3.56 2.803V27.55h-4.12V14.205c0-2.393-.263-3.925-.675-5.084l3.784-.972c.45.86.712 1.944.712 2.99 1.499-2.056 2.998-3.028 4.833-3.028.6 0 .974.075 1.462.3l-1.274 3.812z"/><path d="M190.347 22.578c-.75 1.159-2.098 2.055-3.522 2.055-2.436 0-4.009-1.457-4.009-6.765 0-3.776 1.124-6.205 3.897-6.205 1.386 0 2.81.747 3.634 1.868v9.047zm.824-13.906c-.187.486-.3.897-.337 1.832-.974-1.458-2.885-2.318-4.833-2.318-4.759 0-7.644 3.813-7.644 10.354 0 6.467 3.522 9.495 7.644 9.495 1.723 0 3.147-.598 4.458-1.906h.013c0 3.82-1.666 5.468-5.581 5.468-1.507 0-2.935-.613-4.183-1.52l-1.705 2.649c1.836 1.35 3.91 2.011 6.196 2.011 5.66 0 9.082-2.704 9.082-8.4V14.054c0-2.243.15-4.224.45-5.383h-3.56z" fill="#A2232B"/><path d="M4.464 45.592c-.414 0-.758-.12-1.016-.36-.276-.24-.414-.602-.414-1.22v-9.067c0-1.117-.206-1.752-.206-1.752l1.343-.257s.224.72.224 2.026v8.741c0 .67.103.859.482.859.052 0 .173-.034.173-.034l.275.875c-.344.155-.5.19-.861.19m7.888-6.784c-.361-.756-1.12-1.1-1.826-1.1-.757 0-1.463.361-1.756.928-.276.532-.413 1.22-.413 2.232 0 1.203.206 2.268.533 2.8.31.515 1 .859 1.74.859.896 0 1.567-.464 1.86-1.288.19-.533.258-1.014.258-1.855 0-1.203-.12-2.01-.396-2.576m-1.756 6.835c-2.36 0-3.703-1.735-3.703-4.551 0-2.782 1.395-4.483 3.651-4.483 1.43 0 2.36.653 2.945 1.495.534.772.792 1.786.792 3.177 0 2.85-1.533 4.362-3.685 4.362m14.864-.224v-8.518l1.396-.223v8.742H25.46zm.724-10.149c-.586 0-1.05-.464-1.05-1.03 0-.584.464-1.065 1.05-1.065.585 0 1.05.463 1.05 1.047 0 .584-.465 1.048-1.05 1.048zm6.062 10.407c-1.085 0-2.273-.326-3.152-.858l.517-.997c.879.533 1.774.808 2.721.808 1.051 0 1.74-.567 1.74-1.477 0-.773-.43-1.202-1.412-1.409l-1.068-.223c-1.412-.292-2.17-1.168-2.17-2.353 0-1.545 1.257-2.627 3.048-2.627a5.6 5.6 0 0 1 2.618.687l-.5.996c-.757-.361-1.394-.618-2.152-.618-.982 0-1.62.566-1.62 1.408 0 .652.328 1.047 1.24 1.236l1.138.24c1.55.327 2.29 1.117 2.29 2.388 0 1.666-1.309 2.799-3.238 2.799m8.679-7.797h-1.79v5.513c0 .945.257 1.27 1.101 1.27.38 0 .603-.05.844-.17l.19.858c-.43.223-.913.343-1.516.343a2.5 2.5 0 0 1-1.12-.24c-.602-.292-.826-.842-.826-1.7V37.88h-1.12v-1.013h1.12c0-.824.138-2.164.138-2.164l1.412-.309s-.173 1.34-.173 2.473h2.154l-.414 1.013zm2.222 7.539v-8.518l1.396-.223v8.742h-1.396zm.724-10.149c-.586 0-1.05-.464-1.05-1.03 0-.584.464-1.065 1.05-1.065.585 0 1.05.463 1.05 1.047 0 .584-.465 1.048-1.05 1.048zm6.82 10.339c-1.223 0-2.135-.43-2.738-1.289-.569-.824-.827-1.768-.827-3.04 0-1.871.551-2.902 1.292-3.64.672-.67 1.412-.996 2.325-.996 1.085 0 1.722.412 2.342.927l-.74.928c-.603-.498-.982-.687-1.636-.687a1.85 1.85 0 0 0-1.62.961c-.327.601-.482 1.546-.482 2.8 0 1.923.74 2.97 2.119 2.97.689 0 1.343-.326 1.843-.927l.74.86c-.792.806-1.55 1.132-2.618 1.132m7.149.069c-1.086 0-2.274-.326-3.152-.858l.516-.997c.879.533 1.774.808 2.722.808 1.05 0 1.74-.567 1.74-1.477 0-.773-.432-1.202-1.413-1.409l-1.068-.223c-1.412-.292-2.17-1.168-2.17-2.353 0-1.545 1.257-2.627 3.048-2.627a5.6 5.6 0 0 1 2.618.687l-.5.996c-.757-.361-1.394-.618-2.152-.618-.982 0-1.619.566-1.619 1.408 0 .652.327 1.047 1.24 1.236l1.137.24c1.55.327 2.29 1.117 2.29 2.388 0 1.666-1.309 2.799-3.238 2.799m-36.035-2.576c-.447.841-1.205 1.322-2.083 1.322-.654 0-1.067-.154-1.429-.498-.43-.395-.809-.962-.809-2.834 0-1.133.104-1.666.396-2.232.345-.67.999-1.048 1.739-1.048.826 0 1.721.481 2.186 1.22v4.07zm.224-6.234c-.086.189-.155.72-.172.944-.74-.824-1.498-1.202-2.427-1.202-1.016 0-1.928.498-2.565 1.374-.569.773-.81 1.717-.81 3.418 0 1.734.534 2.781 1.378 3.486.568.48 1.17.687 1.962.687.981 0 1.756-.361 2.41-1.117l.006.015v.206c0 .807-.104 1.425-.396 1.872-.482.738-1.274 1.088-2.135 1.088-.826 0-1.687-.23-2.29-.78l-.593.983c.758.687 1.79 1.064 2.892 1.064 2.376 0 3.805-1.717 3.805-4.55h.003v-5.29c0-1.426.258-2.198.258-2.198h-1.326z" fill="#858484"/></g></svg>